<?xml version="1.0" encoding="utf-8"?>
<!-- Generator: Adobe Illustrator 23.1.0, SVG Export Plug-In . SVG Version: 6.00 Build 0)  -->
<svg version="1.1" id="Layer_1" xmlns="http://www.w3.org/2000/svg" xmlns:xlink="http://www.w3.org/1999/xlink" x="0px" y="0px"
	 viewBox="0 0 1000 800" style="enable-background:new 0 0 1000 800;" xml:space="preserve">
<style type="text/css">
	.st0{fill:url(#SVGID_1_);}
	.st1{fill:url(#SVGID_2_);}
	.st2{fill:url(#SVGID_3_);}
	.st3{fill:url(#SVGID_4_);}
	.st4{fill:url(#SVGID_5_);}
	.st5{fill:url(#SVGID_6_);}
	.st6{fill:url(#SVGID_7_);}
	.st7{fill:url(#SVGID_8_);}
	.st8{fill:url(#SVGID_9_);}
</style>
<g>
	<g>
		<g>
			<linearGradient id="SVGID_1_" gradientUnits="userSpaceOnUse" x1="196.7073" y1="272.3903" x2="800.2469" y2="272.3903">
				<stop  offset="0" style="stop-color:#765EA9"/>
				<stop  offset="1" style="stop-color:#211D54"/>
			</linearGradient>
			<path class="st0" d="M483.23,293.56h-57.45c-11.69,0-21.17-9.48-21.17-21.17c0-11.69,9.48-21.17,21.17-21.17h57.45
				c11.69,0,21.17,9.48,21.17,21.17C504.4,284.08,494.92,293.56,483.23,293.56z"/>
		</g>
		<g>
			<linearGradient id="SVGID_2_" gradientUnits="userSpaceOnUse" x1="196.7069" y1="272.3903" x2="800.2477" y2="272.3903">
				<stop  offset="0" style="stop-color:#765EA9"/>
				<stop  offset="1" style="stop-color:#211D54"/>
			</linearGradient>
			<path class="st1" d="M361.14,293.56h-44.29c-11.69,0-21.17-9.48-21.17-21.17c0-11.69,9.48-21.17,21.17-21.17h44.29
				c11.69,0,21.17,9.48,21.17,21.17C382.31,284.08,372.83,293.56,361.14,293.56z"/>
		</g>
		<g>
			<linearGradient id="SVGID_3_" gradientUnits="userSpaceOnUse" x1="196.7071" y1="357.971" x2="800.2468" y2="357.971">
				<stop  offset="0" style="stop-color:#765EA9"/>
				<stop  offset="1" style="stop-color:#211D54"/>
			</linearGradient>
			<path class="st2" d="M419.54,379.14H339.2c-11.69,0-21.17-9.48-21.17-21.17c0-11.69,9.48-21.17,21.17-21.17h80.34
				c11.69,0,21.17,9.48,21.17,21.17C440.71,369.66,431.23,379.14,419.54,379.14z"/>
		</g>
		<g>
			<linearGradient id="SVGID_4_" gradientUnits="userSpaceOnUse" x1="196.7073" y1="442.7897" x2="800.2469" y2="442.7897">
				<stop  offset="0" style="stop-color:#765EA9"/>
				<stop  offset="1" style="stop-color:#211D54"/>
			</linearGradient>
			<path class="st3" d="M287.79,463.96h-30.83c-11.69,0-21.17-9.48-21.17-21.17c0-11.69,9.48-21.17,21.17-21.17h30.83
				c11.69,0,21.17,9.48,21.17,21.17C308.96,454.48,299.48,463.96,287.79,463.96z"/>
		</g>
		<g>
			<linearGradient id="SVGID_5_" gradientUnits="userSpaceOnUse" x1="196.7072" y1="527.6077" x2="800.2484" y2="527.6077">
				<stop  offset="0" style="stop-color:#765EA9"/>
				<stop  offset="1" style="stop-color:#211D54"/>
			</linearGradient>
			<path class="st4" d="M270.4,548.77h-16.67c-11.69,0-21.17-9.48-21.17-21.17c0-11.69,9.48-21.17,21.17-21.17h16.67
				c11.69,0,21.17,9.48,21.17,21.17C291.56,539.3,282.09,548.77,270.4,548.77z"/>
		</g>
		<g>
			<linearGradient id="SVGID_6_" gradientUnits="userSpaceOnUse" x1="196.7066" y1="442.7897" x2="800.2466" y2="442.7897">
				<stop  offset="0" style="stop-color:#765EA9"/>
				<stop  offset="1" style="stop-color:#211D54"/>
			</linearGradient>
			<path class="st5" d="M432.08,463.96h-80.76c-11.69,0-21.17-9.48-21.17-21.17c0-11.69,9.48-21.17,21.17-21.17h80.76
				c11.69,0,21.17,9.48,21.17,21.17C453.25,454.48,443.77,463.96,432.08,463.96z"/>
		</g>
		<g>
			<linearGradient id="SVGID_7_" gradientUnits="userSpaceOnUse" x1="196.707" y1="527.6077" x2="800.2482" y2="527.6077">
				<stop  offset="0" style="stop-color:#765EA9"/>
				<stop  offset="1" style="stop-color:#211D54"/>
			</linearGradient>
			<path class="st6" d="M479.71,548.77H344.93c-11.69,0-21.17-9.48-21.17-21.17c0-11.69,9.48-21.17,21.17-21.17h134.78
				c11.69,0,21.17,9.48,21.17,21.17C500.87,539.3,491.4,548.77,479.71,548.77z"/>
		</g>
		<g>
			<linearGradient id="SVGID_8_" gradientUnits="userSpaceOnUse" x1="196.7072" y1="357.971" x2="800.2473" y2="357.971">
				<stop  offset="0" style="stop-color:#765EA9"/>
				<stop  offset="1" style="stop-color:#211D54"/>
			</linearGradient>
			<path class="st7" d="M269.89,379.14h-48.73c-11.69,0-21.17-9.48-21.17-21.17c0-11.69,9.48-21.17,21.17-21.17h48.73
				c11.69,0,21.17,9.48,21.17,21.17C291.06,369.66,281.58,379.14,269.89,379.14z"/>
		</g>
	</g>
	<linearGradient id="SVGID_9_" gradientUnits="userSpaceOnUse" x1="196.7073" y1="400" x2="800.2485" y2="400">
		<stop  offset="0" style="stop-color:#765EA9"/>
		<stop  offset="1" style="stop-color:#211D54"/>
	</linearGradient>
	<path class="st8" d="M759.82,367.65l40.02,38.82c0.07-2.15,0.16-4.3,0.16-6.47c0-110.13-89.28-199.41-199.41-199.41
		c-70.98,0-133.25,37.11-168.59,92.96h14.01l-18.54,7.52c-13.43,23.45-22.27,49.87-25.21,78.06h14.65l-15.13,5.92
		c-0.37,4.94-0.61,9.91-0.61,14.94c0,22.38,3.74,43.87,10.54,63.96h12.89l-10.69,6.24c11.45,30.43,30.12,57.32,53.94,78.57h16.57
		l-10.27,5.43c34.41,28.24,78.43,45.21,126.43,45.21c102.75,0,187.31-77.72,198.19-177.57l-38.97-37.8l-43.02,41.73
		c-11.78,53.37-59.3,93.32-116.21,93.32c-65.77,0-119.09-53.32-119.09-119.09s53.32-119.08,119.09-119.08
		c65.77,0,119.08,53.32,119.08,119.08c0,2.34-0.22,4.63-0.35,6.94L759.82,367.65z"/>
</g>
</svg>
